<?xml version="1.0" encoding="UTF-8"?><svg id="_圖層_2" xmlns="http://www.w3.org/2000/svg" viewBox="0 0 25 25"><defs><style>.cls-1{fill:#fff;}.cls-2{fill:#e75454;}.cls-3{fill:none;}</style></defs><g id="_圖層_1-2"><g><rect class="cls-3" width="25" height="25"/><g><g><path class="cls-1" d="M12.73,0c.63,.23,.86,.69,.82,1.33-.02,.27-.09,.6,.04,.78,.11,.16,.47,.14,.72,.21,2.95,.78,5.08,3.2,5.43,6.24,.07,.62,.04,1.25,.06,1.88,.02,.9-.02,1.81,.07,2.71,.18,1.71,.95,3.14,2.22,4.3,.38,.35,.71,.71,.8,1.24,.17,1.07-.53,2-1.61,2.13-.11,.01-.23,.02-.34,.02-5.62,0-11.25,0-16.87,0-.89,0-1.55-.41-1.85-1.14-.3-.74-.12-1.52,.51-2.08,.83-.73,1.48-1.59,1.92-2.61,.35-.83,.54-1.69,.55-2.58,.01-.97,0-1.94,0-2.9,0-3.72,2.48-6.68,6.15-7.33,.02,0,.05-.02,.1-.04,0-.28,.02-.57,0-.86-.04-.64,.21-1.08,.83-1.29h.44Z"/><path class="cls-1" d="M12.1,25c-.49-.16-1.01-.26-1.47-.5-1.05-.55-1.68-1.45-1.95-2.62h7.64c-.07,.47-.26,.89-.5,1.28-.65,1.01-1.58,1.62-2.77,1.8-.04,0-.07,.03-.11,.04h-.83Z"/></g><circle class="cls-2" cx="18.24" cy="5.25" r="4"/></g></g></g></svg>