<?xml version="1.0" encoding="UTF-8"?><svg id="_圖層_2" xmlns="http://www.w3.org/2000/svg" viewBox="0 0 30 30"><defs><style>.cls-1{fill:#fff;}.cls-2{fill:none;}</style></defs><g id="_圖層_1-2"><g><rect class="cls-2" width="30" height="30"/><path class="cls-1" d="M5.02,17.21c-.84-.45-1.62-.87-2.41-1.29-.38-.2-.65-.46-.65-.92,0-.46,.27-.72,.65-.92,.79-.41,1.58-.84,2.4-1.28-.12-.07-.21-.13-.3-.18-.72-.39-1.44-.77-2.16-1.15-.36-.19-.6-.46-.6-.89,0-.43,.24-.69,.6-.89,3.95-2.11,7.9-4.22,11.84-6.34,.42-.23,.79-.23,1.21,0,3.94,2.12,7.89,4.23,11.84,6.34,.36,.19,.6,.46,.6,.89,0,.43-.23,.7-.59,.9-.72,.38-1.44,.77-2.16,1.16-.09,.05-.18,.11-.3,.17,.85,.46,1.68,.9,2.5,1.34,.32,.17,.53,.43,.55,.8,.02,.43-.18,.73-.55,.92-.82,.44-1.65,.88-2.5,1.34,.11,.07,.2,.12,.29,.17,.72,.39,1.44,.77,2.16,1.16,.36,.19,.6,.46,.6,.89,0,.43-.24,.7-.6,.89-3.96,2.12-7.91,4.23-11.86,6.35-.4,.21-.76,.21-1.16,0-3.89-2.09-7.79-4.17-11.68-6.26-.08-.04-.15-.08-.23-.12-.35-.18-.55-.46-.55-.86,0-.4,.2-.68,.55-.86,.73-.39,1.46-.78,2.19-1.17,.09-.05,.18-.1,.33-.18Zm20.11-6.63c-.11-.06-.19-.11-.27-.15-3.21-1.72-6.42-3.43-9.62-5.16-.18-.09-.3-.09-.48,0-2.85,1.53-5.71,3.06-8.57,4.59-.44,.23-.87,.47-1.32,.71,.06,.04,.09,.06,.12,.08,3.28,1.75,6.55,3.51,9.83,5.25,.1,.05,.28,.03,.39-.02,1.98-1.05,3.95-2.1,5.92-3.16,1.32-.71,2.64-1.41,4-2.14ZM4.88,19.41c.09,.06,.16,.1,.22,.14,3.23,1.73,6.47,3.47,9.7,5.2,.16,.09,.28,.06,.43-.02,2.91-1.56,5.82-3.12,8.72-4.68,.38-.21,.77-.42,1.18-.64-.65-.35-1.27-.67-1.88-1.02-.19-.11-.34-.11-.53,0-2.37,1.28-4.75,2.55-7.12,3.83-.42,.23-.79,.22-1.21,0-2.38-1.29-4.77-2.56-7.16-3.83-.1-.05-.25-.1-.34-.06-.67,.34-1.34,.71-2.03,1.08Zm20.26-4.42c-.67-.36-1.28-.68-1.88-1.01-.18-.1-.32-.1-.51,0-2.38,1.28-4.77,2.55-7.15,3.84-.41,.22-.78,.22-1.19,0-2.18-1.18-4.39-2.32-6.55-3.54-.62-.35-1.11-.42-1.7,0-.38,.27-.82,.46-1.27,.7,.11,.07,.17,.11,.24,.14,3.23,1.73,6.45,3.46,9.67,5.19,.18,.1,.3,.06,.45-.02,3.03-1.63,6.06-3.25,9.08-4.87,.25-.14,.51-.28,.81-.44Z"/></g></g></svg>