<?xml version="1.0" encoding="UTF-8"?><svg id="_圖層_2" xmlns="http://www.w3.org/2000/svg" viewBox="0 0 25 25"><defs><style>.cls-1{fill:#fff;}.cls-2{fill:none;}</style></defs><g id="_圖層_1-2"><g><rect class="cls-2" width="25" height="25"/><g><path class="cls-1" d="M12.09,21.46v-.76c-.11,0-.21,0-.31,0-3.1,0-6.21,0-9.31,0-.64,0-1.1-.32-1.24-.88-.03-.12-.04-.26-.04-.39,0-.98,0-1.97,0-2.95,0-.8,.48-1.27,1.28-1.27,6.69,0,13.39,0,20.08,0,.81,0,1.28,.48,1.28,1.29,0,.96,0,1.92,0,2.88,0,.85-.47,1.31-1.31,1.31-3.09,0-6.17,0-9.26,0-.1,0-.21,0-.33,0v.76c.1,0,.2,0,.31,0,3.33,0,6.66,0,9.99,0,.42,0,.6,.12,.6,.4,0,.28-.18,.4-.59,.4-7.15,0-14.3,0-21.45,0-.03,0-.07,0-.1,0-.33,0-.5-.14-.5-.4,0-.26,.17-.4,.5-.4,3.36,0,6.71,0,10.07,0h.34Zm.39-1.56c3.33,0,6.66,0,9.99,0,.44,0,.55-.11,.55-.55,0-.93,0-1.87,0-2.8,0-.4-.12-.52-.52-.52-6.66,0-13.32,0-19.98,0-.41,0-.53,.12-.53,.52,0,.92,0,1.84,0,2.75,0,.5,.1,.6,.6,.6,3.3,0,6.6,0,9.89,0Z"/><path class="cls-1" d="M12.53,2.74c3.34,0,6.68,0,10.02,0,.65,0,1.1,.32,1.24,.88,.03,.13,.04,.27,.04,.41,0,.97,0,1.93,0,2.9,0,.81-.47,1.29-1.28,1.29-6.69,0-13.39,0-20.08,0-.81,0-1.28-.48-1.28-1.29,0-.95,0-1.9,0-2.85,0-.88,.45-1.34,1.33-1.34,3.34,0,6.68,0,10.02,0Zm-.05,4.68c3.33,0,6.66,0,9.99,0,.44,0,.55-.11,.55-.55,0-.93,0-1.87,0-2.8,0-.4-.12-.52-.53-.52-6.66,0-13.32,0-19.98,0-.41,0-.52,.12-.53,.52,0,.92,0,1.84,0,2.75,0,.5,.1,.6,.6,.6,3.3,0,6.6,0,9.89,0Z"/><path class="cls-1" d="M12.5,14.46c-3.35,0-6.69,0-10.04,0-.64,0-1.08-.31-1.23-.86-.04-.13-.05-.27-.05-.41,0-.98,0-1.97,0-2.95,0-.79,.48-1.27,1.28-1.27,6.69,0,13.39,0,20.08,0,.81,0,1.28,.47,1.28,1.29,0,.97,0,1.93,0,2.9,0,.83-.47,1.29-1.3,1.29-3.34,0-6.68,0-10.02,0Zm0-4.68c-3.32,0-6.64,0-9.97,0-.44,0-.55,.11-.55,.55,0,.93,0,1.87,0,2.8,0,.4,.12,.52,.53,.52,6.66,0,13.32,0,19.98,0,.4,0,.52-.12,.53-.52,0-.92,0-1.84,0-2.75,0-.5-.1-.6-.6-.6-3.31,0-6.61,0-9.92,0Z"/><path class="cls-1" d="M3.93,16.78c.67,0,1.18,.53,1.17,1.2,0,.65-.53,1.16-1.19,1.16-.67,0-1.18-.53-1.17-1.2,0-.65,.53-1.16,1.19-1.16Zm-.02,1.55c.2,0,.37-.17,.38-.37,0-.2-.17-.37-.37-.38-.2,0-.37,.17-.38,.37,0,.2,.17,.38,.37,.38Z"/><path class="cls-1" d="M8.22,17.96c0,.67-.53,1.19-1.19,1.18-.66,0-1.17-.52-1.17-1.18,0-.67,.52-1.19,1.19-1.18,.66,0,1.17,.52,1.17,1.18Zm-.81,0c0-.2-.17-.37-.37-.38-.2,0-.37,.17-.38,.37,0,.2,.17,.38,.37,.38,.2,0,.37-.17,.38-.37Z"/><path class="cls-1" d="M11.34,17.95c0,.67-.52,1.19-1.18,1.19-.66,0-1.17-.52-1.18-1.17,0-.67,.52-1.19,1.18-1.19,.66,0,1.17,.51,1.18,1.17Zm-1.19-.36c-.2,0-.37,.18-.37,.38,0,.2,.18,.37,.38,.37,.2,0,.37-.18,.37-.38,0-.2-.18-.37-.38-.37Z"/><path class="cls-1" d="M3.93,4.3c.67,0,1.18,.53,1.18,1.2,0,.65-.53,1.17-1.19,1.16-.67,0-1.18-.53-1.18-1.2,0-.65,.53-1.17,1.19-1.16Zm.37,1.19c0-.2-.17-.37-.37-.38-.2,0-.37,.17-.38,.37,0,.2,.17,.38,.37,.38,.2,0,.37-.17,.38-.37Z"/><path class="cls-1" d="M8.22,5.48c0,.66-.51,1.18-1.16,1.19-.67,0-1.2-.51-1.2-1.18,0-.67,.52-1.19,1.19-1.19,.66,0,1.17,.52,1.17,1.18Zm-.81,0c0-.2-.18-.37-.38-.37-.2,0-.37,.18-.37,.38,0,.2,.18,.37,.38,.37,.2,0,.37-.18,.37-.38Z"/><path class="cls-1" d="M10.16,4.3c.67,0,1.18,.53,1.18,1.19,0,.65-.53,1.17-1.18,1.17-.67,0-1.18-.53-1.18-1.19,0-.66,.52-1.17,1.18-1.17Zm0,.81c-.2,0-.37,.17-.38,.37,0,.2,.17,.38,.37,.38,.2,0,.37-.17,.38-.37,0-.2-.17-.37-.37-.38Z"/><path class="cls-1" d="M3.92,10.54c.67,0,1.18,.53,1.18,1.19,0,.65-.53,1.17-1.18,1.17-.67,0-1.18-.53-1.18-1.19,0-.66,.52-1.17,1.18-1.17Zm.37,1.19c0-.2-.17-.37-.37-.38-.2,0-.37,.17-.38,.37,0,.2,.17,.38,.37,.38,.2,0,.37-.17,.38-.37Z"/><path class="cls-1" d="M7.06,10.54c.66,0,1.17,.54,1.16,1.21-.01,.65-.54,1.16-1.2,1.15-.66,0-1.17-.54-1.16-1.21,.01-.65,.54-1.16,1.2-1.15Zm.35,1.19c0-.2-.17-.37-.37-.38-.2,0-.37,.17-.38,.37,0,.2,.17,.38,.37,.38,.2,0,.37-.17,.38-.37Z"/><path class="cls-1" d="M11.34,11.74c0,.65-.53,1.16-1.19,1.16-.67,0-1.18-.53-1.17-1.2,0-.66,.54-1.17,1.21-1.16,.65,.01,1.16,.54,1.15,1.2Zm-.81-.02c0-.2-.17-.37-.37-.38-.2,0-.37,.17-.38,.37,0,.2,.17,.38,.37,.38,.2,0,.37-.17,.38-.37Z"/></g></g></g></svg>