<?xml version="1.0" encoding="UTF-8"?><svg id="_圖層_2" xmlns="http://www.w3.org/2000/svg" viewBox="0 0 25 25"><defs><style>.cls-1{fill:#fff;}.cls-2{fill:none;}</style></defs><g id="_圖層_1-2"><g><rect class="cls-2" width="25" height="25"/><g><path class="cls-1" d="M14.4,.03c.15,.04,.3,.08,.44,.12,1.05,.33,1.79,1.28,1.8,2.38,.02,1.75,.01,3.51,0,5.26,0,.33-.23,.56-.52,.55-.3,0-.51-.24-.51-.57,0-1.66,0-3.31,0-4.97,0-1.11-.63-1.74-1.73-1.74-2.65,0-5.3,0-7.94,0-.08,0-.16,0-.23,0,0,.02,0,.03-.01,.05,.22,.08,.45,.16,.67,.23,.84,.28,1.68,.55,2.52,.84,1.02,.35,1.53,1.06,1.53,2.14,0,4.95,0,9.89,0,14.84,0,.54,0,1.08,0,1.65,.11,0,.2,.01,.28,.01,1.07,0,2.14,0,3.22,0,1.06,0,1.7-.65,1.7-1.7,0-1.64,0-3.28,0-4.92,0-.11,0-.23,.04-.33,.08-.23,.31-.35,.54-.32,.24,.04,.41,.21,.44,.45,0,.09,0,.18,0,.27,0,1.6-.03,3.2,0,4.8,.04,1.61-1.21,2.85-2.79,2.8-1.05-.04-2.11,0-3.17,0h-.29c0,.35,0,.67,0,.99-.02,1.26-.98,2.21-2.2,2.11-.43-.04-.85-.2-1.26-.34-1.81-.6-3.62-1.2-5.42-1.81-.79-.27-1.3-.8-1.47-1.63,0-.02-.02-.04-.04-.06,0-6.45,0-12.9,0-19.35,.14-.48,.31-.95,.73-1.24C1.06,.33,1.43,.2,1.77,.03c4.21,0,8.41,0,12.62,0Zm-5.02,13.55c0-3.09,0-6.19,0-9.28,0-.59-.23-.93-.79-1.12-2.04-.68-4.07-1.36-6.11-2.03-.77-.25-1.42,.22-1.42,1.04,0,6.18,0,12.36,0,18.54,0,.58,.25,.92,.8,1.11,2.04,.68,4.09,1.37,6.14,2.04,.15,.05,.32,.07,.48,.05,.55-.07,.9-.51,.9-1.12,0-3.08,0-6.15,0-9.23Z"/><path class="cls-1" d="M23.18,10.42c-.1-.11-.16-.17-.22-.23-.98-.98-1.97-1.96-2.94-2.95-.11-.11-.23-.29-.23-.43,0-.15,.11-.33,.23-.44,.14-.14,.35-.12,.52-.02,.08,.05,.15,.12,.22,.19,1.34,1.34,2.68,2.67,4.02,4.01,.26,.26,.27,.55,0,.81-1.36,1.35-2.71,2.71-4.07,4.06-.17,.17-.35,.26-.59,.18-.2-.07-.32-.22-.35-.43-.03-.22,.08-.37,.23-.51,.98-.98,1.96-1.96,2.95-2.94,.06-.06,.14-.11,.21-.16-.01-.03-.02-.06-.04-.08h-.27c-2.84,0-5.68,0-8.53,0-.07,0-.15,0-.22,0-.35-.01-.58-.23-.58-.53,0-.29,.23-.5,.57-.52,.07,0,.15,0,.22,0,2.83,0,5.67,0,8.5,0h.36Z"/></g></g></g></svg>