<?xml version="1.0" encoding="UTF-8"?><svg id="_圖層_2" xmlns="http://www.w3.org/2000/svg" viewBox="0 0 25 25"><defs><style>.cls-1{fill:#fff;}.cls-2{fill:none;}</style></defs><g id="_圖層_1-2"><g><rect class="cls-2" width="25" height="25"/><g><path class="cls-1" d="M24.98,6.72c-.18,.2-.33,.43-.54,.6-.74,.62-1.5,1.21-2.25,1.81-.2,.16-.41,.27-.67,.24-.33-.04-.56-.22-.66-.53-.1-.32-.03-.62,.24-.84,.87-.7,1.74-1.41,2.62-2.1,.41-.32,.96-.17,1.19,.29,.02,.04,.05,.08,.07,.12v.39Z"/><path class="cls-1" d="M24.98,17.63s-.05,.08-.07,.12c-.23,.46-.76,.62-1.17,.31-.9-.69-1.78-1.41-2.66-2.12-.32-.26-.35-.76-.09-1.07,.27-.33,.74-.38,1.09-.11,.79,.62,1.58,1.24,2.35,1.88,.21,.17,.36,.4,.54,.6v.39Z"/><path class="cls-1" d="M24.98,12.18c-.19,.44-.52,.61-1,.59-.76-.02-1.52,0-2.29,0-.52,0-.86-.32-.86-.78,0-.47,.34-.78,.86-.78,.75,0,1.51,.02,2.26,0,.49-.02,.83,.14,1.03,.59v.39Z"/><path class="cls-1" d="M8.25,16.06c.08,.73,.16,1.41,.24,2.1,.12,1.07,.25,2.14,.36,3.22,.07,.67-.23,.99-.9,.99-.94,0-1.88,0-2.83,0-.61,0-.87-.24-.95-.84-.29-2.09-.59-4.18-.89-6.26,0-.05-.02-.09-.04-.17-.32,0-.64,0-.96,0-.49-.01-.95-.13-1.36-.4-.56-.37-.87-.9-.88-1.57-.02-1.02-.02-2.05,0-3.07,.03-1.2,1.02-2.19,2.22-2.22,1.1-.03,2.21,0,3.31-.01,.18,0,.37-.04,.54-.1,4.15-1.65,8.29-3.31,12.44-4.97,.23-.09,.46-.17,.71-.07,.31,.12,.49,.34,.52,.67,0,.07,0,.15,0,.22,0,5.27,0,10.54,0,15.81,0,.13,0,.26-.04,.38-.14,.46-.61,.65-1.11,.45-1.47-.58-2.94-1.17-4.4-1.76-1.9-.76-3.81-1.52-5.71-2.28-.07-.03-.15-.06-.27-.1ZM18.21,4.57c-.08,.03-.13,.04-.19,.06-3.68,1.47-7.36,2.95-11.04,4.41-.16,.06-.2,.14-.2,.3,0,1.4,0,2.81,0,4.21,0,.17,.05,.25,.21,.32,3.64,1.45,7.29,2.91,10.93,4.37,.09,.03,.17,.06,.28,.1V4.57ZM5.22,9.41s-.07-.02-.1-.02c-.93,0-1.87,0-2.8,0-.42,0-.72,.35-.72,.8,0,.93,0,1.85,0,2.78,0,.3,.11,.45,.4,.52,.12,.03,.24,.05,.36,.05,.89,0,1.79,0,2.68,0,.06,0,.12-.01,.18-.02v-4.11Zm1.99,11.39c-.01-.14-.02-.26-.03-.37-.07-.66-.15-1.32-.22-1.98-.11-.96-.21-1.92-.33-2.87,0-.08-.05-.18-.11-.21-.52-.3-1.09-.31-1.68-.24,.27,1.9,.54,3.79,.81,5.68h1.56Z"/></g></g></g></svg>