<?xml version="1.0" encoding="UTF-8"?><svg id="_圖層_2" xmlns="http://www.w3.org/2000/svg" viewBox="0 0 97 97"><defs><style>.cls-1{fill:#fff;}</style></defs><g id="_圖層_1-2"><path class="cls-1" d="M45.67,0c1.89,0,3.79,0,5.68,0,1.28,.15,2.56,.28,3.84,.46,9.56,1.35,18.01,5.17,25.25,11.56,8.52,7.53,13.85,16.89,15.81,28.13,.32,1.82,.5,3.67,.75,5.5v5.68c-.06,.3-.14,.6-.17,.91-.29,4.37-1.21,8.61-2.7,12.72-8.48,23.36-33.11,36.53-57.26,30.63C11.96,89.51-4.01,64.57,.88,39.4c1.87-9.65,6.25-18,13.16-24.98C21.28,7.11,29.99,2.5,40.16,.75,41.98,.43,43.83,.25,45.67,0Zm.86,54.96c-1.15,.13-2.31,.2-3.44,.41-12.31,2.34-21.04,9.21-26.12,20.7-.33,.75-.18,1.17,.34,1.71,10.06,10.27,22.21,14.8,36.51,13.14,10.27-1.19,18.88-5.8,25.99-13.27,.46-.49,.52-.86,.27-1.48-1.16-2.78-2.62-5.39-4.46-7.77-5.19-6.69-11.9-10.99-20.2-12.72-1.62-.34-3.28-.53-5.02-.8,10.26-1.43,16.01-10.38,15.05-18.68-1.05-9-8.36-15.49-17.12-15.36-8.77,.12-15.93,6.69-16.78,15.53-.83,8.52,5.08,17.11,14.98,18.58Z"/></g></svg>