<?xml version="1.0" encoding="UTF-8"?><svg id="_圖層_2" xmlns="http://www.w3.org/2000/svg" viewBox="0 0 25 25"><defs><style>.cls-1{fill:#fff;}.cls-2{fill:none;}</style></defs><g id="_圖層_1-2"><g><rect class="cls-2" width="25" height="25"/><g><path class="cls-1" d="M13.91,0c.39,.11,.74,.28,.99,.62,.29,.37,.31,.81,.37,1.24,.06,.43,.1,.86,.17,1.28,.01,.09,.1,.19,.19,.23,.36,.17,.73,.3,1.09,.47,.13,.06,.22,.04,.32-.04,.44-.35,.89-.7,1.34-1.05,.71-.55,1.52-.5,2.16,.13,.53,.52,1.05,1.04,1.57,1.57,.61,.62,.66,1.43,.13,2.12-.35,.47-.71,.93-1.08,1.39-.08,.11-.09,.19-.03,.3,.16,.36,.3,.74,.47,1.1,.04,.08,.14,.18,.23,.19,.55,.08,1.09,.15,1.64,.21,.93,.11,1.5,.73,1.5,1.66,0,.72,0,1.43,0,2.15,0,.9-.52,1.51-1.41,1.65-.55,.08-1.11,.15-1.67,.21-.17,.02-.27,.07-.33,.25-.13,.36-.28,.71-.44,1.06-.05,.12-.05,.2,.03,.3,.36,.45,.71,.91,1.06,1.37,.54,.71,.49,1.52-.14,2.16-.51,.52-1.03,1.04-1.55,1.55-.64,.63-1.44,.68-2.15,.13-.45-.35-.9-.7-1.34-1.05-.11-.09-.19-.1-.32-.04-.34,.16-.7,.31-1.05,.44-.16,.06-.22,.15-.24,.31-.06,.57-.13,1.15-.21,1.72-.11,.7-.51,1.16-1.21,1.34-.03,0-.06,.03-.09,.04h-2.83s-.06-.03-.09-.04c-.69-.18-1.1-.63-1.21-1.34-.09-.57-.15-1.14-.21-1.72-.02-.17-.08-.25-.24-.31-.34-.12-.68-.26-1.01-.42-.15-.07-.25-.07-.39,.04-.45,.36-.9,.72-1.36,1.06-.68,.51-1.49,.45-2.1-.15-.53-.52-1.05-1.04-1.57-1.57-.63-.64-.68-1.44-.13-2.16,.34-.45,.68-.89,1.03-1.33,.1-.12,.12-.22,.04-.37-.16-.34-.3-.68-.43-1.03-.06-.16-.15-.22-.31-.24-.56-.06-1.11-.13-1.67-.2-.4-.05-.77-.2-1.01-.52-.17-.23-.28-.52-.41-.79,0-.96,0-1.92,0-2.88,.02-.03,.04-.05,.05-.08,.21-.7,.68-1.09,1.39-1.18,.55-.07,1.11-.15,1.67-.2,.16-.02,.24-.08,.29-.23,.13-.35,.27-.7,.43-1.03,.07-.15,.07-.24-.03-.37-.35-.44-.69-.88-1.03-1.33-.56-.73-.51-1.53,.13-2.18,.51-.51,1.02-1.03,1.53-1.54,.65-.64,1.45-.7,2.17-.14,.45,.35,.9,.7,1.34,1.05,.1,.08,.17,.11,.3,.05,.37-.17,.75-.31,1.12-.48,.08-.04,.17-.13,.18-.21,.07-.43,.11-.85,.17-1.28,.06-.42,.07-.84,.33-1.21,.26-.36,.62-.56,1.03-.68h2.83Zm7.7,5.58c-.09-.14-.15-.3-.26-.41-.49-.51-1-1.01-1.5-1.5-.31-.31-.52-.33-.87-.06-.55,.43-1.1,.86-1.65,1.29-.22,.18-.44,.19-.7,.07-.56-.25-1.13-.5-1.7-.71-.3-.11-.44-.29-.48-.6-.08-.69-.17-1.37-.25-2.06-.05-.41-.24-.57-.65-.57-.69,0-1.38,0-2.07,0-.44,0-.62,.16-.67,.6-.09,.69-.17,1.37-.25,2.06-.03,.29-.18,.46-.46,.56-.57,.21-1.13,.44-1.68,.7-.29,.13-.52,.12-.76-.07-.53-.43-1.07-.84-1.61-1.26-.37-.28-.57-.27-.89,.05-.48,.48-.96,.97-1.45,1.45-.33,.33-.34,.53-.05,.91,.41,.53,.82,1.07,1.24,1.6,.21,.26,.21,.49,.07,.79-.25,.54-.48,1.08-.68,1.64-.11,.31-.29,.46-.61,.49-.69,.08-1.37,.16-2.05,.26-.39,.05-.55,.24-.56,.64,0,.7,0,1.4,0,2.1,0,.42,.16,.6,.59,.66,.68,.09,1.37,.18,2.05,.26,.3,.03,.47,.18,.58,.47,.21,.57,.44,1.13,.7,1.69,.13,.28,.12,.5-.07,.74-.43,.55-.86,1.1-1.29,1.66-.25,.33-.24,.54,.05,.83,.49,.49,.98,.98,1.46,1.47,.33,.33,.54,.35,.91,.06,.55-.42,1.09-.85,1.63-1.27,.22-.18,.44-.19,.7-.07,.56,.25,1.13,.5,1.7,.71,.3,.11,.44,.29,.48,.6,.08,.69,.17,1.37,.25,2.06,.05,.41,.24,.57,.65,.57,.69,0,1.38,0,2.07,0,.44,0,.62-.16,.67-.6,.09-.69,.17-1.37,.25-2.06,.03-.29,.18-.46,.46-.56,.57-.21,1.13-.44,1.68-.7,.29-.13,.52-.12,.76,.08,.55,.44,1.1,.86,1.65,1.29,.31,.24,.54,.23,.82-.05,.5-.49,.99-.99,1.48-1.48,.32-.32,.34-.53,.06-.89-.43-.55-.85-1.11-1.29-1.66-.17-.22-.18-.43-.07-.68,.25-.57,.5-1.14,.72-1.73,.11-.29,.28-.43,.58-.47,.69-.08,1.39-.17,2.08-.26,.39-.05,.55-.24,.56-.64,0-.71,0-1.42,0-2.12,0-.39-.16-.57-.54-.62-.69-.09-1.38-.18-2.08-.26-.31-.03-.49-.17-.6-.48-.21-.57-.45-1.13-.7-1.68-.13-.28-.12-.5,.07-.74,.44-.55,.86-1.1,1.28-1.66,.09-.11,.14-.25,.23-.41Z"/><path class="cls-1" d="M12.34,17.71c-2.91-.14-5.17-2.54-5.04-5.38,.13-2.9,2.54-5.16,5.35-5.04,2.9,.13,5.17,2.55,5.04,5.38-.14,2.9-2.55,5.17-5.35,5.04Zm.16-9.37c-2.3,0-4.15,1.85-4.15,4.15,0,2.3,1.84,4.16,4.14,4.17,2.31,0,4.17-1.86,4.17-4.17,0-2.3-1.85-4.16-4.15-4.16Z"/></g></g></g></svg>