<?xml version="1.0" encoding="UTF-8"?><svg id="_圖層_2" xmlns="http://www.w3.org/2000/svg" viewBox="0 0 30 30"><defs><style>.cls-1{fill:#fff;}.cls-2{fill:none;}</style></defs><g id="_圖層_1-2"><g><rect class="cls-2" width="30" height="30"/><g><path class="cls-1" d="M29.96,18.22c-.08,.57-.13,1.14-.23,1.71-.48,2.77-1.66,5.2-3.5,7.32-.27,.31-.62,.41-1.02,.41-3.34,0-6.68,0-10.03,0s-6.92,0-10.38,0c-.5,0-.87-.18-1.19-.56-1.9-2.25-3.11-4.82-3.45-7.74C-.46,14.07,1.2,9.58,5.17,6.04c2.91-2.6,6.38-3.77,10.28-3.69,6.77,.14,12.78,5.13,14.16,11.78,.14,.67,.2,1.35,.3,2.02,.01,.09,.03,.17,.05,.26v1.82Zm-27.53,.29c0,.07,0,.11,0,.15,.27,2.39,1.13,4.55,2.6,6.46,.11,.15,.23,.2,.42,.2,6.37,0,12.75,0,19.12,0,.19,0,.3-.06,.41-.21,1-1.3,1.74-2.73,2.17-4.31,.2-.74,.32-1.5,.48-2.28-.41,0-.74,0-1.07,0-.74,0-1.26-.49-1.26-1.17,0-.68,.52-1.17,1.26-1.17,.34,0,.67,0,1.01,0-.53-6.22-5.64-10.97-11.4-11.41,0,.34,0,.68,0,1.02,0,.72-.49,1.24-1.16,1.25-.68,0-1.18-.52-1.18-1.25,0-.34,0-.68,0-1.04-2.6,.26-4.88,1.2-6.93,2.89,.3,.28,.58,.51,.83,.78,.45,.48,.43,1.22-.04,1.66-.46,.43-1.16,.43-1.64-.03-.26-.25-.52-.51-.78-.78-1.66,2.03-2.6,4.31-2.86,6.91,.36,0,.7,0,1.04,0,.72,0,1.24,.49,1.24,1.16,0,.68-.52,1.18-1.25,1.18-.34,0-.68,0-1.02,0Z"/><path class="cls-1" d="M11.48,17.58c0-2.69,2.45-4.4,4.74-3.53,.23,.09,.36,.04,.52-.12,1.27-1.29,2.55-2.58,3.84-3.85,.67-.67,1.74-.4,1.98,.48,.13,.48-.03,.88-.37,1.22-1.26,1.26-2.52,2.53-3.79,3.78-.19,.18-.21,.32-.13,.57,.49,1.42,.2,2.7-.87,3.73-1.09,1.04-2.4,1.28-3.78,.69-1.39-.59-2.06-1.72-2.14-2.98Zm4.68-.24c0-.64-.52-1.17-1.16-1.18-.64,0-1.17,.52-1.17,1.17,0,.64,.52,1.17,1.16,1.18,.64,0,1.17-.52,1.17-1.17Z"/></g></g></g></svg>