<?xml version="1.0" encoding="UTF-8"?><svg id="_圖層_2" xmlns="http://www.w3.org/2000/svg" viewBox="0 0 20 19.96"><defs><style>.cls-1{fill:#fff;}</style></defs><g id="_圖層_1-2"><g><path class="cls-1" d="M10.59,19.96h-1.17c-.05-.01-.1-.03-.15-.03-1.56-.11-3.03-.56-4.36-1.37C2.31,16.97,.72,14.69,.16,11.7,.09,11.32,.05,10.94,0,10.56c0-.39,0-.78,0-1.17,.01-.06,.03-.12,.04-.19,.06-.44,.1-.89,.2-1.33C.75,5.5,1.99,3.55,3.92,2.07,6.01,.47,8.39-.2,11,.05c2.11,.2,3.98,1.02,5.57,2.42,1.76,1.55,2.86,3.48,3.27,5.79,.07,.38,.1,.76,.16,1.13v1.17c-.02,.14-.03,.28-.05,.42-.23,2.11-1.03,3.98-2.45,5.58-1.55,1.75-3.48,2.84-5.78,3.24-.38,.07-.76,.1-1.14,.16ZM10.01,1.33c-4.77,0-8.67,3.88-8.68,8.65,0,4.76,3.87,8.64,8.65,8.66,4.77,.02,8.67-3.86,8.69-8.64,.02-4.76-3.88-8.66-8.66-8.67Z"/><path class="cls-1" d="M10.67,9.26c.1,0,.18,0,.26,0,1.31,0,2.62,0,3.92,0,.42,0,.68,.18,.76,.53,.08,.35-.15,.71-.5,.78-.08,.02-.17,.02-.25,.02-1.78,0-3.55,0-5.33,0-.05,0-.1,0-.17,0,0-.05-.01-.09-.01-.14,0-2.27,0-4.53,0-6.8,0-.48,.38-.79,.82-.69,.3,.07,.5,.33,.51,.66,0,.44,0,.88,0,1.32,0,1.36,0,2.71,0,4.07v.25Z"/></g></g></svg>